<svg width="531" height="434" viewBox="0 0 531 434" fill="none" xmlns="http://www.w3.org/2000/svg">
<path d="M119.741 113.785H15.1074V49.9381H111.286L119.741 113.785Z" fill="#EFEFEF"/>
<path d="M79.1744 78.4057C84.4277 78.4057 88.6865 74.4549 88.6865 69.5814C88.6865 64.7078 84.4277 60.757 79.1744 60.757C73.921 60.757 69.6622 64.7078 69.6622 69.5814C69.6622 74.4549 73.921 78.4057 79.1744 78.4057Z" fill="#3F3D56"/>
<path d="M105.724 31.8967C106.626 30.9474 107.56 30.0027 108.501 29.0886L109.486 29.9606C108.557 30.8627 107.635 31.7948 106.745 32.7313L105.724 31.8967Z" fill="#3F3D56"/>
<path d="M114.527 23.7003C116.606 21.9882 118.788 20.337 121.01 18.7926L121.827 19.8028C119.634 21.3268 117.482 22.9558 115.43 24.6448L114.527 23.7003ZM127.91 14.4005C130.264 13.0318 132.71 11.7378 135.179 10.5542L135.804 11.6762C133.368 12.8436 130.955 14.12 128.633 15.4701L127.91 14.4005ZM142.765 7.28027C145.326 6.29227 147.967 5.38978 150.615 4.59702L151.034 5.79885C148.421 6.58059 145.815 7.47141 143.288 8.44603L142.765 7.28027ZM158.988 3.74443L158.676 2.51564C161.385 1.92453 164.148 1.43076 166.889 1.04779L167.092 2.29654C164.387 2.67421 161.661 3.16132 158.988 3.74443ZM175.296 1.46946L175.205 0.209691C177.977 0.0374658 180.791 -0.0291841 183.568 0.0117038L183.547 1.27441C180.807 1.23377 178.031 1.29956 175.296 1.46944V1.46946ZM191.786 1.71454L191.921 0.458305C194.686 0.713204 197.475 1.0793 200.21 1.54636L199.964 2.78819C197.265 2.32721 194.514 1.96601 191.786 1.71452V1.71454ZM242.795 168.079C244.969 166.534 247.102 164.884 249.134 163.175L250.049 164.111C247.988 165.843 245.827 167.515 243.623 169.081L242.795 168.079ZM208.017 4.48529L208.372 3.26671C211.053 3.94092 213.738 4.72776 216.353 5.60531L215.89 6.79238C213.31 5.92678 210.661 5.1504 208.017 4.48529ZM255.016 157.802C256.887 155.946 258.699 153.993 260.401 151.999L261.468 152.783C259.743 154.804 257.907 156.783 256.01 158.664L255.016 157.802ZM223.532 9.69204L224.099 8.54367C226.626 9.61677 229.135 10.7999 231.558 12.0608L230.892 13.1618C228.502 11.9179 226.026 10.7503 223.532 9.69204ZM265.255 145.805C266.776 143.688 268.22 141.487 269.548 139.263L270.738 139.875C269.392 142.129 267.929 144.36 266.388 146.505L265.255 145.805ZM237.921 17.1784L238.682 16.1317C240.985 17.5719 243.253 19.1187 245.422 20.7293L244.571 21.715C242.431 20.1258 240.194 18.5996 237.921 17.1784ZM273.248 132.417C274.376 130.098 275.413 127.707 276.332 125.312L277.614 125.735C276.683 128.163 275.632 130.586 274.489 132.936L273.248 132.417ZM250.796 26.7407L251.731 25.8233C253.751 27.5946 255.714 29.4644 257.567 31.3809L256.554 32.2237C254.726 30.333 252.789 28.4884 250.796 26.7407ZM278.776 117.996C279.48 115.534 280.08 113.018 280.561 110.518L281.902 110.739C281.414 113.274 280.805 115.824 280.092 118.319L278.776 117.996ZM261.803 38.1279L262.887 37.3654C264.564 39.4193 266.168 41.5627 267.655 43.7364L266.506 44.4127C265.039 42.2684 263.457 40.1538 261.803 38.1279ZM281.674 102.928C281.931 100.397 282.075 97.823 282.104 95.2787L283.465 95.2923C283.436 97.8711 283.289 100.48 283.029 103.046L281.674 102.928ZM270.634 51.0423L271.839 50.4569C273.126 52.7371 274.328 55.0985 275.41 57.475L274.156 57.9663C273.088 55.6216 271.903 53.2922 270.634 51.0423ZM281.849 87.6232C281.651 85.0921 281.337 82.5323 280.913 80.0151L282.258 79.8204C282.687 82.3717 283.006 84.9663 283.206 87.5318L281.849 87.6232ZM277.051 65.1359L278.344 64.7416C279.21 67.1861 279.981 69.7055 280.631 72.2074L279.307 72.5033C278.666 70.0325 277.905 67.5485 277.051 65.1359Z" fill="#3F3D56"/>
<path d="M232.494 174.495C233.656 173.865 234.819 173.204 235.953 172.531L236.687 173.594C235.538 174.276 234.358 174.946 233.181 175.584L232.494 174.495Z" fill="#3F3D56"/>
<path d="M15.1074 93.8195L35.9602 74.4744L54.8345 91.9835L90.6448 58.7624L120.021 86.5332V113.785H15.1074V93.8195Z" fill="#00B0FF"/>
<path d="M356.425 271.585V396.683H529.881V271.585H356.425ZM507.231 305.04H493.796V292.577H507.231V305.04Z" fill="#3F3D56"/>
<path d="M86.7281 222.273H75.5374V235.769H86.7281V222.273Z" fill="#3F3D56"/>
<path d="M262.01 311.491L254.097 304.151L243.81 313.694L251.724 321.035L262.01 311.491Z" fill="#3F3D56"/>
<path d="M228.998 75.8292L221.085 68.4883L210.798 78.0315L218.711 85.3724L228.998 75.8292Z" fill="#3F3D56"/>
<path d="M369.296 356.322C368.676 357.449 368.024 358.579 367.358 359.681L366.171 359.064C366.829 357.976 367.472 356.861 368.083 355.748L369.296 356.322Z" fill="#3F3D56"/>
<path d="M362.964 366.289C361.407 368.427 359.736 370.529 357.997 372.537L356.936 371.747C358.652 369.765 360.3 367.691 361.835 365.583L362.964 366.289ZM352.489 378.381C350.575 380.25 348.553 382.066 346.478 383.782L345.572 382.839C347.619 381.147 349.614 379.355 351.502 377.512L352.489 378.381ZM340.005 388.701C337.789 390.248 335.473 391.731 333.12 393.109L332.393 392.041C334.715 390.682 337.001 389.219 339.187 387.692L340.005 388.701ZM325.238 395.864L325.869 396.983C323.403 398.179 320.859 399.294 318.306 400.297L317.775 399.134C320.294 398.145 322.805 397.045 325.238 395.864ZM310.05 401.825L310.475 403.025C307.836 403.83 305.128 404.543 302.427 405.143L302.11 403.915C304.775 403.323 307.446 402.62 310.05 401.825ZM294.011 405.387L294.217 406.635C291.47 407.025 288.67 407.313 285.896 407.491L285.802 406.231C288.539 406.056 291.301 405.772 294.011 405.387ZM200.061 255.989C198.369 257.986 196.744 260.075 195.233 262.199L194.097 261.504C195.629 259.351 197.275 257.233 198.991 255.208L200.061 255.989ZM277.547 406.443L277.529 407.705C274.752 407.67 271.94 407.526 269.172 407.279L269.303 406.022C272.034 406.266 274.808 406.408 277.547 406.443ZM190.974 268.759C189.659 270.988 188.426 273.297 187.312 275.621L186.068 275.107C187.198 272.752 188.447 270.412 189.781 268.153L190.974 268.759ZM261.124 404.974L260.882 406.217C258.147 405.76 255.4 405.192 252.715 404.529L253.065 403.309C255.714 403.963 258.425 404.523 261.124 404.974ZM184.268 282.739C183.362 285.14 182.552 287.605 181.861 290.065L180.544 289.747C181.244 287.253 182.065 284.755 182.983 282.322L184.268 282.739ZM245.181 401.038L244.725 402.227C242.108 401.362 239.497 400.387 236.965 399.326L237.525 398.175C240.024 399.222 242.599 400.185 245.181 401.038ZM180.11 297.55C179.638 300.055 179.273 302.61 179.025 305.142L177.669 305.028C177.921 302.461 178.291 299.872 178.769 297.333L180.11 297.55ZM230.15 394.741L229.49 395.845C227.059 394.595 224.656 393.236 222.349 391.807L223.105 390.757C225.381 392.167 227.751 393.508 230.15 394.741ZM178.616 312.792C178.593 315.339 178.685 317.915 178.888 320.448L177.531 320.541C177.325 317.974 177.232 315.363 177.255 312.782L178.616 312.792ZM216.439 386.247L215.593 387.236C213.419 385.632 211.291 383.926 209.269 382.163L210.201 381.243C212.196 382.982 214.295 384.666 216.439 386.247H216.439ZM179.842 328.056C180.272 330.567 180.82 333.093 181.473 335.565L180.152 335.865C179.49 333.36 178.933 330.799 178.498 328.254L179.842 328.056ZM204.428 375.772L203.417 376.617C201.559 374.705 199.764 372.694 198.079 370.641L199.162 369.876C200.824 371.902 202.596 373.885 204.428 375.772ZM183.77 342.921C184.639 345.328 185.63 347.735 186.714 350.075L185.464 350.574C184.365 348.201 183.361 345.762 182.48 343.323L183.77 342.921ZM194.439 363.598L193.292 364.278C191.798 362.11 190.377 359.847 189.078 357.573L190.28 356.982C191.563 359.228 192.965 361.458 194.439 363.598Z" fill="#3F3D56"/>
<path d="M208.322 247.4C207.365 248.278 206.415 249.186 205.497 250.099L204.501 249.239C205.431 248.313 206.395 247.392 207.365 246.503L208.322 247.4Z" fill="#3F3D56"/>
<path d="M503.665 278.085C503.536 277.89 500.509 273.2 499.459 263.461C498.496 254.527 499.115 239.466 507.534 218.458C523.485 178.66 503.859 146.548 503.658 146.229L504.626 145.707C504.677 145.789 509.741 153.976 512.733 167.013C516.686 184.297 515.247 202.268 508.584 218.82C492.661 258.55 504.499 277.359 504.62 277.544L503.665 278.085Z" fill="#3F3D56"/>
<path d="M497.428 143.892C501.445 143.892 504.702 140.87 504.702 137.144C504.702 133.417 501.445 130.396 497.428 130.396C493.41 130.396 490.154 133.417 490.154 137.144C490.154 140.87 493.41 143.892 497.428 143.892Z" fill="#00B0FF"/>
<path d="M520.369 168.807C524.386 168.807 527.643 165.786 527.643 162.059C527.643 158.333 524.386 155.311 520.369 155.311C516.352 155.311 513.095 158.333 513.095 162.059C513.095 165.786 516.352 168.807 520.369 168.807Z" fill="#3F3D56"/>
<path d="M504.702 185.418C508.719 185.418 511.976 182.397 511.976 178.67C511.976 174.943 508.719 171.922 504.702 171.922C500.685 171.922 497.428 174.943 497.428 178.67C497.428 182.397 500.685 185.418 504.702 185.418Z" fill="#00B0FF"/>
<path d="M523.726 199.433C527.743 199.433 531 196.412 531 192.685C531 188.958 527.743 185.937 523.726 185.937C519.709 185.937 516.452 188.958 516.452 192.685C516.452 196.412 519.709 199.433 523.726 199.433Z" fill="#00B0FF"/>
<path d="M499.106 221.235C503.124 221.235 506.38 218.213 506.38 214.486C506.38 210.76 503.124 207.738 499.106 207.738C495.089 207.738 491.832 210.76 491.832 214.486C491.832 218.213 495.089 221.235 499.106 221.235Z" fill="#3F3D56"/>
<path d="M508.059 278.333C508.059 278.333 500.785 261.723 522.607 249.265L508.059 278.333Z" fill="#3F3D56"/>
<path d="M499.113 278.032C499.113 278.032 495.803 260.368 470.18 260.519L499.113 278.032Z" fill="#3F3D56"/>
<path d="M267.729 383.497C266.401 383.497 265.103 383.132 263.999 382.447C262.894 381.763 262.034 380.79 261.526 379.652C261.017 378.513 260.884 377.261 261.143 376.053C261.403 374.844 262.042 373.735 262.981 372.863C263.92 371.992 265.116 371.399 266.419 371.159C267.721 370.918 269.071 371.042 270.298 371.513C271.525 371.985 272.574 372.783 273.312 373.807C274.049 374.832 274.443 376.036 274.443 377.268C274.441 378.919 273.733 380.503 272.474 381.67C271.216 382.838 269.509 383.495 267.729 383.497ZM267.729 372.077C266.622 372.077 265.54 372.382 264.62 372.952C263.7 373.522 262.983 374.333 262.559 375.281C262.136 376.23 262.025 377.274 262.241 378.281C262.457 379.287 262.99 380.212 263.772 380.938C264.555 381.664 265.552 382.159 266.637 382.359C267.723 382.559 268.848 382.456 269.87 382.064C270.893 381.671 271.766 381.005 272.381 380.152C272.996 379.298 273.324 378.295 273.324 377.268C273.323 375.892 272.733 374.572 271.684 373.599C270.635 372.626 269.212 372.079 267.729 372.077Z" fill="#2F2E41"/>
<path d="M341.491 49.36H330.445V39.1128H341.491V49.36ZM331.295 48.5718H340.642V39.901H331.295V48.5718Z" fill="#3F3D56"/>
<path d="M40.2613 335.414L32.7271 327.921L40.8046 320.931L48.3389 328.425L40.2613 335.414ZM33.928 327.96L40.3031 334.3L47.138 328.386L40.7628 322.046L33.928 327.96Z" fill="#2F2E41"/>
<path d="M336.898 267.5H136.687V192.524H303.224L336.898 267.5Z" fill="#EFEFEF"/>
<path d="M337.813 268.068H112.196V176.052H296.899L297.055 176.404L337.813 268.068ZM113.421 266.932H335.984L296.079 177.188H113.421V266.932Z" fill="#3F3D56"/>
<path d="M269.549 204.452H169.75V212.972H269.549V204.452Z" fill="#00B0FF"/>
<path d="M269.549 222.06H169.75V230.58H269.549V222.06Z" fill="#00B0FF"/>
<path d="M269.549 239.668H169.75V248.188H269.549V239.668Z" fill="#00B0FF"/>
<path d="M167.543 126.243H0V31.7705H130.203L130.338 32.1109L167.543 126.243ZM1.11907 125.205H165.941L129.422 32.8086H1.11907V125.205Z" fill="#3F3D56"/>
<path d="M120.3 114.304H14.548V41.1139H120.3V114.304ZM15.667 113.266H119.181V42.1521H15.667V113.266Z" fill="#3F3D56"/>
<path d="M166.742 135.067C172.304 135.067 176.813 130.884 176.813 125.724C176.813 120.564 172.304 116.38 166.742 116.38C161.179 116.38 156.67 120.564 156.67 125.724C156.67 130.884 161.179 135.067 166.742 135.067Z" fill="#00B0FF"/>
<path d="M335.722 277.295C341.284 277.295 345.793 273.112 345.793 267.952C345.793 262.791 341.284 258.608 335.722 258.608C330.159 258.608 325.65 262.791 325.65 267.952C325.65 273.112 330.159 277.295 335.722 277.295Z" fill="#00B0FF"/>
<path d="M407.946 140.167C417.306 140.167 424.894 133.128 424.894 124.445C424.894 115.762 417.306 108.723 407.946 108.723C398.587 108.723 390.999 115.762 390.999 124.445C390.999 133.128 398.587 140.167 407.946 140.167Z" fill="#A0616A"/>
<path d="M396.295 131.979C396.295 131.979 401.944 143.77 394.177 148.356C386.409 152.941 406.887 171.939 406.887 171.939L429.484 149.666C429.484 149.666 417.479 142.46 419.598 130.669L396.295 131.979Z" fill="#A0616A"/>
<path d="M357.457 181.765L352.514 207.969C352.514 207.969 344.04 223.691 344.04 237.448C344.04 251.204 342.628 253.825 342.628 253.825C342.628 253.825 328.505 280.028 338.391 281.338C348.277 282.649 352.514 254.48 352.514 254.48C352.514 254.48 365.931 223.691 365.931 213.865L375.111 192.247L357.457 181.765Z" fill="#A0616A"/>
<path d="M459.848 183.075L461.26 206.003C461.26 206.003 466.203 217.795 462.673 238.758L459.848 259.066C459.848 259.066 466.203 281.994 459.848 282.649C453.493 283.304 445.725 268.237 449.962 259.721V252.515C449.962 252.515 445.725 221.726 447.137 216.485L442.194 191.592L459.848 183.075Z" fill="#A0616A"/>
<path d="M368.05 364.535L375.111 381.567L390.646 378.946L380.76 360.604L368.05 364.535Z" fill="#A0616A"/>
<path d="M435.133 378.291L433.015 403.185H450.668L449.962 381.567L435.133 378.291Z" fill="#A0616A"/>
<path d="M379.348 228.932L377.229 238.758C377.229 238.758 372.992 242.033 372.992 245.309C372.992 248.584 371.58 249.894 371.58 249.894C371.58 249.894 370.874 249.894 370.168 251.204C369.803 251.92 369.327 252.582 368.756 253.17C368.756 253.17 327.093 292.475 336.273 312.127C345.453 331.78 363.106 371.74 363.106 371.74C363.106 371.74 383.584 365.845 383.584 361.259L363.812 309.507L403.356 271.512L435.133 311.472C435.133 311.472 428.778 381.567 433.015 382.222C437.251 382.877 460.554 387.463 461.26 385.497C461.966 383.532 465.497 296.405 464.085 293.13C462.673 289.855 442.194 250.549 442.194 250.549C442.194 250.549 445.725 246.619 443.607 245.309C441.488 243.999 437.958 231.552 437.958 231.552C437.958 231.552 382.878 223.036 379.348 228.932Z" fill="#2F2E41"/>
<path d="M409.712 155.562L395.478 147.418C395.478 147.418 387.115 147.701 384.997 149.666C382.878 151.631 370.168 156.872 370.168 156.872C370.168 156.872 372.992 235.482 378.641 232.862C384.291 230.242 380.054 228.276 384.291 230.242C388.528 232.207 438.664 232.862 439.37 232.862C440.076 232.862 440.782 231.552 440.782 231.552L443.607 191.592L452.787 158.182L425.609 146.581L409.712 155.562Z" fill="#D0CDE1"/>
<path d="M375.817 156.217H370.168C370.168 156.217 362.4 158.182 358.87 168.664C355.339 179.145 353.927 183.731 355.339 185.041C356.751 186.351 375.817 196.177 375.817 196.177V156.217Z" fill="#D0CDE1"/>
<path d="M442.901 157.527L452.787 158.182C452.787 158.182 465.497 185.696 461.966 187.006C458.436 188.316 437.958 198.142 437.958 196.177C437.958 194.212 442.901 157.527 442.901 157.527Z" fill="#D0CDE1"/>
<path d="M376.523 373.051L370.765 371.085L357.457 387.463C357.457 387.463 332.742 403.84 355.339 403.185C355.339 403.185 372.992 400.564 374.405 395.979C374.405 395.979 394.883 390.738 394.883 387.463C394.883 384.187 390.177 375.455 388.646 375.236C387.115 375.016 380.76 377.636 376.523 373.051Z" fill="#2F2E41"/>
<path d="M450.668 395.979C450.668 395.979 433.501 395.72 433.611 396.177C433.721 396.634 428.778 407.115 429.484 411.046C430.19 414.976 436.545 420.217 435.133 422.837C433.721 425.458 439.37 433.319 450.668 433.974C461.966 434.629 460.554 422.837 460.554 422.837L454.905 410.391L450.668 395.979Z" fill="#2F2E41"/>
<path d="M397.556 106.248C396.708 106.917 395.823 107.545 394.905 108.129C393.747 109.021 392.677 110.006 391.709 111.074L390.616 112.209C389.686 113.175 388.699 114.278 388.739 115.572C388.753 116.052 388.912 116.518 388.975 116.995C389.222 118.888 387.975 120.968 389.001 122.619C389.298 123.097 389.757 123.47 390.084 123.93C390.5 124.52 390.685 125.224 390.606 125.925C391.709 125.967 392.614 125.05 392.96 124.078C393.306 123.105 393.259 122.055 393.427 121.043C393.596 120.031 394.069 118.959 395.06 118.509C397.175 117.547 399.604 120.047 401.861 119.424C403.438 118.989 404.269 117.176 405.88 116.872C407.034 116.655 408.144 117.291 409.216 117.741C410.288 118.192 411.733 118.4 412.492 117.565C412.993 117.012 413.047 116.126 413.713 115.75C414.511 115.3 415.51 115.927 416.114 116.588C416.718 117.248 417.385 118.056 418.319 118.032C419.557 118 420.506 116.47 421.681 116.833C423.008 117.243 422.398 119.213 423.203 120.274C423.883 121.17 425.309 121.118 426.48 120.969C426.678 120.988 426.877 120.96 427.06 120.887C427.242 120.815 427.402 120.701 427.524 120.556C427.646 120.41 427.727 120.239 427.758 120.057C427.789 119.875 427.77 119.689 427.702 119.515L427.213 113.496C427.211 113.081 427.113 112.672 426.926 112.295C426.585 111.722 425.88 111.432 425.4 110.953C424.392 109.946 424.44 108.18 423.186 107.447C422.535 107.067 421.683 107.078 421.036 106.691C420.207 106.194 419.94 105.2 419.359 104.46C418.528 103.402 417.077 102.911 415.673 102.777C414.27 102.642 412.853 102.804 411.443 102.762C408.576 102.675 405.709 101.926 402.827 102.364C400.314 102.747 399.258 104.726 397.556 106.248Z" fill="#2F2E41"/>
</svg>
